<?xml version="1.0" encoding="utf-8"?>
<!-- Generator: Adobe Illustrator 26.0.2, SVG Export Plug-In . SVG Version: 6.00 Build 0)  -->
<svg version="1.1"
	 id="SVGRoot" xmlns:cc="http://creativecommons.org/ns#" xmlns:dc="http://purl.org/dc/elements/1.1/" xmlns:inkscape="http://www.inkscape.org/namespaces/inkscape" xmlns:rdf="http://www.w3.org/1999/02/22-rdf-syntax-ns#" xmlns:sodipodi="http://sodipodi.sourceforge.net/DTD/sodipodi-0.dtd" xmlns:svg="http://www.w3.org/2000/svg"
	 xmlns="http://www.w3.org/2000/svg" xmlns:xlink="http://www.w3.org/1999/xlink" x="0px" y="0px" viewBox="0 0 250 250"
	 style="enable-background:new 0 0 250 250;" xml:space="preserve">
<style type="text/css">
	.st0{fill:url(#SVGID_1_);}
	.st1{fill:url(#SVGID_00000155131777390761134560000005436647932372586670_);}
	.st2{fill:url(#SVGID_00000094595627438842127440000006593798437884351878_);}
	.st3{fill:url(#SVGID_00000070807198781355029190000005160574405626124172_);}
	.st4{fill:url(#SVGID_00000115500814580296063810000004393108925325305002_);}
	.st5{fill:url(#SVGID_00000083080844740147391000000002243580050729278904_);}
	.st6{fill:url(#SVGID_00000151515473619156346820000000371224567003773345_);}
	.st7{fill:url(#SVGID_00000181786120753550794100000014324790025394969218_);}
	.st8{fill:url(#SVGID_00000124858009861009378500000002932110832615556537_);}
	.st9{fill:url(#SVGID_00000118392715946391969240000017564327577050290852_);}
	.st10{fill:url(#SVGID_00000064334338001443498220000017548039045063346079_);}
	.st11{fill:url(#SVGID_00000086677130084633218710000000753025137948697023_);}
	.st12{fill:url(#SVGID_00000136378023306972272760000001317463464256905622_);}
	.st13{fill:url(#SVGID_00000179619935829244486970000003079840599098962870_);}
	.st14{fill:url(#SVGID_00000064345420467476496770000008865506181543268520_);}
	.st15{fill:url(#SVGID_00000068670290903694452000000016907962133070403772_);}
	.st16{fill:url(#SVGID_00000126316329362064962910000010565048956235913121_);}
	.st17{fill:url(#SVGID_00000009565342310253061610000010757060442459834244_);}
	.st18{fill:url(#SVGID_00000171705577948873679430000009912967108584686015_);}
	.st19{fill:url(#SVGID_00000096043742294215266040000009738636735845117118_);}
	.st20{fill:url(#SVGID_00000064315177587922993260000016448406061579705500_);}
</style>
<sodipodi:namedview  bordercolor="#666666" borderopacity="1.0" id="base" inkscape:current-layer="layer1" inkscape:cx="125" inkscape:cy="125" inkscape:document-units="px" inkscape:pageopacity="0.0" inkscape:pageshadow="2" inkscape:window-height="713" inkscape:window-maximized="1" inkscape:window-width="1299" inkscape:window-x="67" inkscape:window-y="27" inkscape:zoom="2.0149341" pagecolor="#ffffff" showgrid="false">
	</sodipodi:namedview>
<g>
	<linearGradient id="SVGID_1_" gradientUnits="userSpaceOnUse" x1="127.6312" y1="237.6959" x2="127.6312" y2="141.5351">
		<stop  offset="0" style="stop-color:#FFAC32"/>
		<stop  offset="1" style="stop-color:#DD3300"/>
	</linearGradient>
	<path class="st0" d="M131.5,141.5h-27.4c3,7.6,8.5,15.2,16.8,23.6c26.2,26.6,6.7,72.6,6.7,72.6s36.4-32.3,18.8-64.1
		C139.4,161.1,133.6,150.6,131.5,141.5z"/>
	
		<linearGradient id="SVGID_00000036947854738487369730000015219193512748143241_" gradientUnits="userSpaceOnUse" x1="45.1324" y1="220.9409" x2="45.1324" y2="15.1248" gradientTransform="matrix(-1 0 0 1 220.1686 0)">
		<stop  offset="0" style="stop-color:#DD3300"/>
		<stop  offset="1" style="stop-color:#FFAC32"/>
	</linearGradient>
	<path style="fill:url(#SVGID_00000036947854738487369730000015219193512748143241_);" d="M114.5,123.5c1.3-18.6,23-24.7,23-24.7
		c0,0.2-0.7,0.3-0.7,0.5c-0.3,1.2,5.5,5,6,6.2c2.1,5.3,4,10.6,9.8,10.6c5.8,0,10.5-5.9,10.5-13.1c0-4-1.5-7.6-3.8-10
		c1.4-1.3,2.8-2.5,4.3-3.8c26-21.5,16.8-68.2-8.4-73.9c0,0,16.3-1,25.9,9.4c3.3,3.5,7.7,10.5,7.5,20.1c1.4-2.6,2.3-6.7,0.7-12.1
		c2.3,3,4.4,6.4,6.2,10.5c13,29.3-15.8,59.9-15.8,59.9s48.9-38.2,18-68.7c0,0,22.6,10,22.6,32.2c0,6-2.4,14.8-11.2,22.1
		c0,0,7-1.8,11.8-9.5c0.1,3.3-0.5,8.3-5.2,14.9c-28.5,39.6,12.4,20.2,19.4-4c0,0,2.5,12.4-4.1,25.3c-4.2,8.2-11.2,14.4-28.1,18.6
		c0,0,7.4,1.5,15.6-1.9c-3.3,5.7-11.8,11.7-20.1,16.1c-39.5,20.4,20.1,5.3,36.4-19.7c0,0,0,0,0,0c-0.1,0.5-4.5,20.5-21.5,37.4
		c-6.4,5.6-18.5,12.8-38.5,12.6c0,0,7.3,2.3,19.6,1.1c-8.7,4.4-19.1,7.6-31.6,8.8c-2.3,17.9-12.8,33-12.8,33s5.5-22.7-2.7-36.1
		C140,173,113.2,141.7,114.5,123.5z"/>
	
		<linearGradient id="SVGID_00000133488888030581744320000006350622290275238279_" gradientUnits="userSpaceOnUse" x1="155.8345" y1="119.1231" x2="114.012" y2="228.3736">
		<stop  offset="0" style="stop-color:#DD3300"/>
		<stop  offset="1" style="stop-color:#FFAC32"/>
	</linearGradient>
	<path style="fill:url(#SVGID_00000133488888030581744320000006350622290275238279_);" d="M130.7,197.4c0,11.7-5.7,27.2-5.7,27.2
		s-5.7-15.5-5.7-27.2c0-11.7,5.7-21.5,5.7-21.5S130.7,185.7,130.7,197.4z"/>
	
		<linearGradient id="SVGID_00000157286400058311142090000018257377963608849057_" gradientUnits="userSpaceOnUse" x1="144.438" y1="144.5186" x2="120.7574" y2="206.3782">
		<stop  offset="0" style="stop-color:#FFAC32"/>
		<stop  offset="1" style="stop-color:#DD3300"/>
	</linearGradient>
	<path style="fill:url(#SVGID_00000157286400058311142090000018257377963608849057_);" d="M125,183.6c0,0,4.5,7.8,5.5,17.7
		c0.1-1.3,0.2-2.7,0.2-3.9c0-11.7-5.7-21.5-5.7-21.5s-5.7,9.8-5.7,21.5c0,1.3,0.1,2.6,0.2,3.9C120.5,191.4,125,183.6,125,183.6z"/>
	
		<linearGradient id="SVGID_00000034063126198942873700000017484654230669446551_" gradientUnits="userSpaceOnUse" x1="132.992" y1="165.9003" x2="132.992" y2="98.7106">
		<stop  offset="0" style="stop-color:#DD3300"/>
		<stop  offset="1" style="stop-color:#FFAC32"/>
	</linearGradient>
	<path style="fill:url(#SVGID_00000034063126198942873700000017484654230669446551_);" d="M134,165.9c17.1-18.4,20.6-33.4,13.1-52.3
		c-2-2-3.1-5.1-4.4-8.2c-0.5-1.2-6.2-5-6-6.2c0-0.2,0.7-0.3,0.7-0.5c0,0-18.4,5.3-22.3,20.6c1.6,3.8,3.3,7.6,4.9,11.6
		c1.7,4.2,1.8,8.9,0.7,13.9C124.5,151.9,129.3,159.3,134,165.9z"/>
	
		<linearGradient id="SVGID_00000150806254819544296240000016136103472325977244_" gradientUnits="userSpaceOnUse" x1="125.4228" y1="237.6959" x2="125.4228" y2="50.4142">
		<stop  offset="0" style="stop-color:#FFAC32"/>
		<stop  offset="1" style="stop-color:#DD3300"/>
	</linearGradient>
	<path style="fill:url(#SVGID_00000150806254819544296240000016136103472325977244_);" d="M118.7,127.4c-9.6-23.3-21.3-43.5-5-61.5
		c0,0-9.3-3.7-11.6-15.5c0,0,3.1,5.8,18.1,3.4c21-3.4,31,10.2,31,17.9c0,0-11.8-5.6-18.1,3.1c-4.8,6.5,6,21.4,9.8,29.2
		c11.3,22.9,8.4,39.6-13,61.2c-26.2,26.6-6.7,72.6-6.7,72.6s-36.4-32.3-18.8-64.1C115.3,154.1,123.6,139.4,118.7,127.4z"/>
	
		<linearGradient id="SVGID_00000088115929048101839370000012624147832133306766_" gradientUnits="userSpaceOnUse" x1="74.9638" y1="220.9409" x2="74.9638" y2="15.1248">
		<stop  offset="0" style="stop-color:#DD3300"/>
		<stop  offset="1" style="stop-color:#FFAC32"/>
	</linearGradient>
	<path style="fill:url(#SVGID_00000088115929048101839370000012624147832133306766_);" d="M135.5,123.5
		c-1.3-18.6-28.1-24.7-28.1-24.7c0,0.2,0,0.3,0.1,0.5c0.3,1.2,0.4,2.4,0.4,3.7c0,7.2-4.7,13.1-10.5,13.1c-5.8,0-10.5-5.9-10.5-13.1
		c0-4,1.5-7.6,3.8-10c-1.4-1.3-2.8-2.5-4.3-3.8c-26-21.5-16.8-68.2,8.4-73.9c0,0-16.3-1-25.9,9.4C65.6,28,61.1,35,61.4,44.6
		c-1.4-2.6-2.3-6.7-0.7-12.1c-2.3,3-4.4,6.4-6.2,10.5c-13,29.3,15.8,59.9,15.8,59.9s-48.9-38.2-18-68.7c0,0-22.6,10-22.6,32.2
		c0,6,2.4,14.8,11.2,22.1c0,0-7-1.8-11.8-9.5c-0.1,3.3,0.5,8.3,5.2,14.9c28.5,39.6-12.4,20.2-19.4-4c0,0-2.5,12.4,4.1,25.3
		c4.2,8.2,11.2,14.4,28.1,18.6c0,0-7.4,1.5-15.6-1.9c3.3,5.7,11.8,11.7,20.1,16.1c39.5,20.4-20.1,5.3-36.4-19.7c0,0,0,0,0,0
		c0.1,0.5,4.5,20.5,21.5,37.4c6.4,5.6,18.5,12.8,38.5,12.6c0,0-7.3,2.3-19.6,1.1c8.7,4.4,19.1,7.6,31.6,8.8
		c2.3,17.9,12.8,33,12.8,33s-5.5-22.7,2.7-36.1C110,173,136.8,141.7,135.5,123.5z"/>
	
		<linearGradient id="SVGID_00000058566067504279516710000008439832038499345049_" gradientUnits="userSpaceOnUse" x1="40.6783" y1="132.3345" x2="40.6783" y2="131.0554">
		<stop  offset="0" style="stop-color:#DD3300"/>
		<stop  offset="1" style="stop-color:#FFAC32"/>
	</linearGradient>
	<path style="fill:url(#SVGID_00000058566067504279516710000008439832038499345049_);" d="M42.3,132.3c0.4-0.1,0.5-0.1,0.5-0.1
		c-1.5-0.4-3-0.8-4.4-1.2C39.7,131.5,41,131.9,42.3,132.3z"/>
	
		<linearGradient id="SVGID_00000087376732559541867600000001460288450566523311_" gradientUnits="userSpaceOnUse" x1="116.2206" y1="220.9409" x2="116.2206" y2="98.7106">
		<stop  offset="0" style="stop-color:#DD3300"/>
		<stop  offset="1" style="stop-color:#FFAC32"/>
	</linearGradient>
	<path style="fill:url(#SVGID_00000087376732559541867600000001460288450566523311_);" d="M135.5,123.5
		c-1.3-18.6-28.1-24.7-28.1-24.7c0,0.1,0,0.1,0,0.2c7.3,3.1,21.5,10.8,22.4,24.6c1.3,18.2-22,48.2-29.2,60
		c-8.1,13.3-0.6,37.5-0.6,37.5s-5.5-22.7,2.7-36.1C110,173,136.8,141.7,135.5,123.5z"/>
	<g>
		
			<linearGradient id="SVGID_00000096775677993075224620000010575362415860361886_" gradientUnits="userSpaceOnUse" x1="4.9097" y1="125.9368" x2="60.246" y2="159.9091">
			<stop  offset="0" style="stop-color:#FFAC32"/>
			<stop  offset="1" style="stop-color:#DD3300"/>
		</linearGradient>
		<path style="fill:url(#SVGID_00000096775677993075224620000010575362415860361886_);" d="M54,154.9c-0.4-0.1-0.8-0.3-1.1-0.4l0,0
			c0,0,0,0,0,0c-0.4-0.1-0.8-0.3-1.2-0.5l0,0c0,0,0,0,0,0c-0.4-0.2-0.8-0.3-1.3-0.5c0,0,0,0,0,0c0,0,0,0,0,0c-0.8-0.3-1.6-0.7-2.4-1
			l0,0c0,0,0,0,0,0c-0.8-0.4-1.7-0.8-2.6-1.2c0,0,0,0,0,0c-0.1,0-0.1-0.1-0.2-0.1c-0.4-0.2-0.8-0.4-1.3-0.6c0,0-0.1,0-0.1-0.1
			c0,0,0,0,0,0c-0.4-0.2-0.8-0.4-1.2-0.6c0,0-0.1,0-0.1-0.1c0,0,0,0,0,0c-0.4-0.2-0.8-0.4-1.2-0.6c-0.1,0-0.1-0.1-0.2-0.1
			c0,0,0,0,0,0c-0.3-0.2-0.7-0.4-1-0.5l0,0c-0.1-0.1-0.3-0.1-0.4-0.2c0,0,0,0,0,0c-0.3-0.2-0.7-0.4-1-0.5c0,0,0,0,0,0
			c-0.1-0.1-0.3-0.2-0.4-0.2c0,0,0,0,0,0c-0.9-0.5-1.8-1-2.7-1.6c0,0-0.1,0-0.1-0.1c0,0,0,0,0,0c-1.2-0.7-2.4-1.5-3.6-2.2
			c0,0,0,0,0,0c-0.2-0.1-0.3-0.2-0.5-0.3c-0.3-0.2-0.6-0.4-0.9-0.6c0,0,0,0,0,0c-0.2-0.1-0.4-0.3-0.6-0.4c0,0,0,0,0,0
			c-0.2-0.2-0.5-0.3-0.7-0.5c0,0,0,0,0,0c-0.2-0.1-0.4-0.3-0.6-0.4c0,0,0,0,0,0c-0.2-0.2-0.4-0.3-0.7-0.5l0,0
			c-0.2-0.2-0.4-0.3-0.6-0.5c0,0,0,0,0,0c-0.2-0.2-0.4-0.3-0.6-0.5l0,0c-0.1-0.1-0.3-0.2-0.4-0.3c-0.7-0.5-1.4-1.1-2-1.7l0,0
			c-0.2-0.2-0.4-0.4-0.6-0.5c0,0,0,0,0,0c-0.2-0.2-0.4-0.3-0.5-0.5l0,0c-0.2-0.2-0.4-0.4-0.6-0.6c0,0,0,0,0,0
			c-0.2-0.2-0.3-0.3-0.5-0.5l0,0c0,0-0.1-0.1-0.1-0.1c-0.3-0.3-0.6-0.6-1-0.9c0,0,0,0,0,0c-0.2-0.2-0.4-0.4-0.6-0.6c0,0,0,0,0,0
			c-0.9-0.9-1.7-1.8-2.4-2.7c-0.2-0.2-0.4-0.4-0.5-0.7c0,0,0,0,0,0c-0.3-0.3-0.5-0.7-0.8-1.1c0,0-0.1-0.1-0.1-0.1c0,0,0,0,0,0
			c-0.1-0.1-0.2-0.3-0.3-0.4v0c-0.3-0.4-0.5-0.8-0.8-1.2c0,0,0,0,0,0c0,0,0,0,0,0.1c0,0,0,0,0,0c0,0,0,0.1,0,0.1c0,0,0,0,0,0.1
			c0,0,0,0.1,0,0.1c0,0,0,0.1,0,0.1c0,0,0,0,0,0c0,0,0,0.1,0,0.1c0,0,0,0.1,0,0.2c0,0,0,0.1,0,0.1c0,0.1,0,0.1,0.1,0.2
			c0,0.1,0,0.1,0.1,0.2c0,0.1,0.1,0.3,0.1,0.4c0,0.1,0,0.2,0.1,0.2c0,0.1,0.1,0.2,0.1,0.3c0,0.1,0,0.2,0.1,0.2
			c0.1,0.2,0.1,0.4,0.2,0.6c0,0.1,0.1,0.2,0.1,0.3c0,0.1,0.1,0.2,0.1,0.4c0,0.1,0.1,0.3,0.1,0.4c0,0.1,0,0.1,0.1,0.2
			c0,0.1,0.1,0.3,0.1,0.4c0,0,0,0.1,0,0.1c0.5,1.4,1,3,1.8,4.7C29.3,146.6,45.5,152.4,54,154.9C54,154.9,54,154.9,54,154.9z"/>
		
			<linearGradient id="SVGID_00000086684975472940304390000015296366284675967645_" gradientUnits="userSpaceOnUse" x1="80.8185" y1="115.7718" x2="80.8185" y2="15.1501">
			<stop  offset="0" style="stop-color:#FFAC32"/>
			<stop  offset="1" style="stop-color:#DD3300"/>
		</linearGradient>
		<path style="fill:url(#SVGID_00000086684975472940304390000015296366284675967645_);" d="M82.2,87.7c1.5,1.3,3,2.5,4.3,3.8
			c-2.3,2.4-3.8,6-3.8,10c0,7,7.4,13.9,12.9,14.3c0,0,0,0,0,0c-4.7-1-8.3-5.9-8.7-11.9c0-0.3,0-0.7,0-1c0-4,1.5-7.6,3.8-10
			c-1.4-1.3-2.8-2.5-4.3-3.8c-26-21.5-16.8-68.2,8.4-73.9c0,0-6.1,0.3-12,3.6C62.5,30.2,58.5,68.1,82.2,87.7z"/>
		<g>
			
				<linearGradient id="SVGID_00000034784905747102474120000009957774635719047068_" gradientUnits="userSpaceOnUse" x1="69.7263" y1="102.8883" x2="69.7263" y2="101.646">
				<stop  offset="0" style="stop-color:#FFAC32"/>
				<stop  offset="1" style="stop-color:#DD3300"/>
			</linearGradient>
			<path style="fill:url(#SVGID_00000034784905747102474120000009957774635719047068_);" d="M70.3,102.9c0,0-0.4-0.5-1.1-1.2
				C69.9,102.5,70.3,102.9,70.3,102.9z"/>
			
				<linearGradient id="SVGID_00000111894864097142910010000002070847022319323540_" gradientUnits="userSpaceOnUse" x1="54.0761" y1="102.8883" x2="54.0761" y2="34.2065">
				<stop  offset="0" style="stop-color:#FFAC32"/>
				<stop  offset="1" style="stop-color:#DD3300"/>
			</linearGradient>
			<path style="fill:url(#SVGID_00000111894864097142910010000002070847022319323540_);" d="M70.3,102.9c0,0-5.6-4.4-11.8-11.4l0,0
				c0,0,0,0,0,0c-0.2-0.2-0.4-0.4-0.5-0.6c0,0-0.1-0.1-0.1-0.1c-0.3-0.4-0.6-0.7-0.9-1.1c-0.1-0.1-0.1-0.1-0.2-0.2
				c-0.2-0.2-0.3-0.4-0.5-0.6c-0.1-0.1-0.2-0.2-0.2-0.3c-0.3-0.3-0.5-0.6-0.8-0.9c-0.1-0.1-0.2-0.2-0.3-0.4
				c-0.1-0.2-0.3-0.4-0.4-0.5c-0.1-0.1-0.2-0.3-0.3-0.4c-0.2-0.3-0.4-0.5-0.6-0.8c-0.1-0.2-0.2-0.3-0.4-0.5
				c-0.1-0.2-0.2-0.3-0.4-0.5c-0.1-0.2-0.3-0.4-0.4-0.6c-0.2-0.2-0.3-0.4-0.5-0.6c-0.1-0.2-0.3-0.4-0.4-0.6
				c-0.1-0.2-0.2-0.3-0.3-0.5c-0.2-0.3-0.4-0.5-0.5-0.8c-0.1-0.2-0.2-0.3-0.3-0.5c-0.2-0.2-0.3-0.5-0.5-0.7
				c-0.1-0.1-0.2-0.3-0.3-0.4c-0.2-0.3-0.4-0.7-0.6-1c-0.1-0.1-0.1-0.2-0.2-0.3c-0.2-0.3-0.3-0.5-0.5-0.8c-0.1-0.1-0.1-0.3-0.2-0.4
				c-0.2-0.4-0.4-0.7-0.6-1.1c-0.1-0.1-0.1-0.2-0.2-0.3c-0.2-0.3-0.3-0.6-0.5-0.9c-0.1-0.1-0.1-0.2-0.2-0.4
				c-0.2-0.4-0.4-0.7-0.5-1.1c0-0.1-0.1-0.2-0.1-0.3c-0.1-0.3-0.3-0.6-0.4-1c0-0.1-0.1-0.2-0.1-0.3c-0.2-0.4-0.3-0.8-0.5-1.2
				c0-0.1-0.1-0.2-0.1-0.3c-0.1-0.3-0.3-0.7-0.4-1c0-0.1-0.1-0.2-0.1-0.3c-0.1-0.4-0.3-0.8-0.4-1.2c0-0.1-0.1-0.2-0.1-0.3
				c-0.1-0.4-0.2-0.7-0.3-1.1c0-0.1-0.1-0.2-0.1-0.3c-0.1-0.4-0.2-0.8-0.3-1.2c0-0.1,0-0.2-0.1-0.3c-0.1-0.4-0.2-0.7-0.3-1.1
				c0-0.1,0-0.2-0.1-0.3c-0.1-0.4-0.2-0.8-0.2-1.3c0-0.1,0-0.2,0-0.3c-0.1-0.4-0.1-0.7-0.2-1.1c0-0.1,0-0.2,0-0.2
				c-0.1-0.4-0.1-0.9-0.1-1.3c0-0.1,0-0.2,0-0.3c0-0.4,0-0.8-0.1-1.1c0-0.1,0-0.2,0-0.2c0-0.4,0-0.9,0-1.3c0-0.1,0-0.2,0-0.3
				c0-0.4,0-0.8,0-1.2c0-0.1,0-0.1,0-0.2c0-0.4,0.1-0.9,0.1-1.3c0-0.1,0-0.2,0-0.3c0-0.4,0.1-0.8,0.2-1.2c0-0.1,0-0.1,0-0.2
				c0.1-0.4,0.2-0.9,0.3-1.3c0-0.1,0-0.2,0.1-0.3c0.1-0.4,0.2-0.8,0.3-1.2c0-0.1,0-0.1,0-0.2c0.1-0.4,0.3-0.9,0.4-1.3
				c0-0.1,0.1-0.2,0.1-0.3c0.1-0.4,0.3-0.8,0.5-1.2c0,0,0-0.1,0.1-0.1c0.2-0.4,0.4-0.9,0.6-1.3c0-0.1,0.1-0.2,0.1-0.3
				c0.2-0.4,0.4-0.8,0.6-1.2c0,0,0-0.1,0.1-0.1c0.2-0.4,0.5-0.9,0.8-1.3c0.1-0.1,0.1-0.2,0.2-0.3c0.3-0.4,0.5-0.8,0.8-1.2
				c0,0,0-0.1,0.1-0.1c0.3-0.4,0.6-0.9,0.9-1.3c0.1-0.1,0.2-0.2,0.2-0.3c0.3-0.4,0.7-0.8,1-1.3c0,0,0,0,0,0c0.4-0.4,0.7-0.9,1.1-1.3
				c0.1-0.1,0.2-0.2,0.3-0.3c0.4-0.4,0.8-0.9,1.2-1.3c0,0-5.4,2.4-11,7.5C25.3,75.9,70.3,102.9,70.3,102.9z"/>
		</g>
		<g>
			
				<linearGradient id="SVGID_00000013879741196290612300000009703926419294423481_" gradientUnits="userSpaceOnUse" x1="41.7118" y1="117.8988" x2="12.5233" y2="90.3448">
				<stop  offset="0" style="stop-color:#DD3300"/>
				<stop  offset="1" style="stop-color:#FFAC32"/>
			</linearGradient>
			<path style="fill:url(#SVGID_00000013879741196290612300000009703926419294423481_);" d="M40.1,116.4
				C40.1,116.4,40.1,116.4,40.1,116.4C40.1,116.4,40.1,116.4,40.1,116.4C40.1,116.4,40.1,116.4,40.1,116.4z"/>
			
				<linearGradient id="SVGID_00000031905418851586315710000011749217796166612906_" gradientUnits="userSpaceOnUse" x1="40.7509" y1="118.9164" x2="11.5652" y2="91.3651">
				<stop  offset="0" style="stop-color:#DD3300"/>
				<stop  offset="1" style="stop-color:#FFAC32"/>
			</linearGradient>
			<path style="fill:url(#SVGID_00000031905418851586315710000011749217796166612906_);" d="M14.8,89.9
				C14.8,89.9,14.8,89.9,14.8,89.9c0,0.1,0,0.1,0,0.1c0,0,0,0.1,0,0.1c0,0,0,0.1,0,0.1c0,0,0,0.1,0,0.1c0,0,0,0.1,0,0.1
				c0,0,0,0.1,0,0.1c0,0.1,0,0.1,0,0.2c0,0.1,0,0.1,0,0.2c0,0.1,0,0.1,0,0.2c0,0.1,0,0.1,0,0.2c0,0.1,0,0.2,0,0.3c0,0.1,0,0.1,0,0.2
				c0,0.1,0,0.2,0,0.3c0,0.1,0,0.1,0,0.2c0,0.1,0,0.2,0,0.3c0,0.1,0,0.2,0,0.2c0,0.1,0,0.2,0,0.3c0,0.1,0,0.2,0,0.3
				c0,0.1,0,0.2,0,0.4c0,0.1,0,0.2,0,0.3c0,0.1,0,0.3,0,0.4c0,0.1,0,0.2,0,0.3c0,0.1,0,0.3,0,0.4c0,0.1,0,0.2,0,0.2
				c0,0.4,0,0.8,0,1.3c5.7,9.4,17,17.3,24.5,19.4C31.5,113.9,18.5,102.5,14.8,89.9C14.8,89.8,14.8,89.8,14.8,89.9
				C14.8,89.9,14.8,89.9,14.8,89.9z"/>
		</g>
	</g>
	<g>
		
			<linearGradient id="SVGID_00000129205297130148372540000000686151148791948950_" gradientUnits="userSpaceOnUse" x1="329.0957" y1="125.9368" x2="384.432" y2="159.9091" gradientTransform="matrix(-1 0 0 1 574.1875 0)">
			<stop  offset="0" style="stop-color:#FFAC32"/>
			<stop  offset="1" style="stop-color:#DD3300"/>
		</linearGradient>
		<path style="fill:url(#SVGID_00000129205297130148372540000000686151148791948950_);" d="M196,154.9c0.4-0.1,0.8-0.3,1.1-0.4l0,0
			c0,0,0,0,0,0c0.4-0.1,0.8-0.3,1.2-0.5c0,0,0,0,0,0c0,0,0,0,0,0c0.4-0.2,0.8-0.3,1.3-0.5c0,0,0,0,0,0c0,0,0,0,0,0
			c0.8-0.3,1.6-0.7,2.4-1l0,0c0,0,0,0,0,0c0.8-0.4,1.7-0.8,2.6-1.2c0,0,0,0,0,0c0.1,0,0.1-0.1,0.2-0.1c0.4-0.2,0.8-0.4,1.3-0.6
			c0,0,0.1,0,0.1-0.1c0,0,0,0,0,0c0.4-0.2,0.8-0.4,1.2-0.6c0,0,0.1,0,0.1-0.1c0,0,0,0,0,0c0.4-0.2,0.8-0.4,1.2-0.6
			c0.1,0,0.1-0.1,0.2-0.1c0,0,0,0,0,0c0.3-0.2,0.7-0.4,1-0.5c0,0,0,0,0,0c0.1-0.1,0.3-0.1,0.4-0.2c0,0,0,0,0,0
			c0.3-0.2,0.7-0.4,1-0.5c0,0,0,0,0,0c0.1-0.1,0.3-0.2,0.4-0.2c0,0,0,0,0,0c0.9-0.5,1.8-1,2.7-1.6c0,0,0.1,0,0.1-0.1c0,0,0,0,0,0
			c1.2-0.7,2.4-1.5,3.6-2.2c0,0,0,0,0,0c0.2-0.1,0.3-0.2,0.5-0.3c0.3-0.2,0.6-0.4,0.9-0.6c0,0,0,0,0,0c0.2-0.1,0.4-0.3,0.6-0.4
			c0,0,0,0,0,0c0.2-0.2,0.5-0.3,0.7-0.5c0,0,0,0,0,0c0.2-0.1,0.4-0.3,0.6-0.4c0,0,0,0,0,0c0.2-0.2,0.4-0.3,0.7-0.5v0
			c0.2-0.2,0.4-0.3,0.6-0.5c0,0,0,0,0,0c0.2-0.2,0.4-0.3,0.6-0.5l0,0c0.1-0.1,0.3-0.2,0.4-0.3c0.7-0.5,1.4-1.1,2-1.7c0,0,0,0,0,0
			c0.2-0.2,0.4-0.4,0.6-0.5c0,0,0,0,0,0c0.2-0.2,0.4-0.3,0.5-0.5c0,0,0,0,0,0c0.2-0.2,0.4-0.4,0.6-0.6l0,0c0.2-0.2,0.3-0.3,0.5-0.5
			c0,0,0,0,0,0c0,0,0.1-0.1,0.1-0.1c0.3-0.3,0.6-0.6,1-0.9c0,0,0,0,0,0c0.2-0.2,0.4-0.4,0.6-0.6c0,0,0,0,0,0
			c0.9-0.9,1.7-1.8,2.4-2.7c0.2-0.2,0.4-0.4,0.5-0.7c0,0,0,0,0,0c0.3-0.3,0.5-0.7,0.8-1.1c0,0,0.1-0.1,0.1-0.1c0,0,0,0,0,0
			c0.1-0.1,0.2-0.3,0.3-0.4v0c0.3-0.4,0.5-0.8,0.8-1.2c0,0,0,0,0,0c0,0,0,0,0,0.1c0,0,0,0,0,0c0,0,0,0.1,0,0.1c0,0,0,0,0,0.1
			c0,0,0,0.1,0,0.1c0,0,0,0.1,0,0.1c0,0,0,0,0,0c0,0,0,0.1,0,0.1c0,0,0,0.1,0,0.2c0,0,0,0.1,0,0.1c0,0.1,0,0.1-0.1,0.2
			c0,0.1,0,0.1-0.1,0.2c0,0.1-0.1,0.3-0.1,0.4c0,0.1,0,0.2-0.1,0.2c0,0.1-0.1,0.2-0.1,0.3c0,0.1,0,0.2-0.1,0.2
			c-0.1,0.2-0.1,0.4-0.2,0.6c0,0.1-0.1,0.2-0.1,0.3c0,0.1-0.1,0.2-0.1,0.4c0,0.1-0.1,0.3-0.1,0.4c0,0.1,0,0.1-0.1,0.2
			c0,0.1-0.1,0.3-0.1,0.4c0,0,0,0.1,0,0.1c-0.5,1.4-1,3-1.8,4.7C220.7,146.6,204.5,152.4,196,154.9C196,154.9,196,154.9,196,154.9z"
			/>
		
			<linearGradient id="SVGID_00000065062804481834127100000016844123422243154334_" gradientUnits="userSpaceOnUse" x1="405.0045" y1="115.7718" x2="405.0045" y2="15.1501" gradientTransform="matrix(-1 0 0 1 574.1875 0)">
			<stop  offset="0" style="stop-color:#FFAC32"/>
			<stop  offset="1" style="stop-color:#DD3300"/>
		</linearGradient>
		<path style="fill:url(#SVGID_00000065062804481834127100000016844123422243154334_);" d="M167.8,87.7c-1.5,1.3-3,2.5-4.3,3.8
			c2.3,2.4,3.8,6,3.8,10c0,7-7.4,13.9-12.9,14.3c0,0,0,0,0,0c4.7-1,8.3-5.9,8.7-11.9c0-0.3,0-0.7,0-1c0-4-1.5-7.6-3.8-10
			c1.4-1.3,2.8-2.5,4.3-3.8c26-21.5,16.8-68.2-8.4-73.9c0,0,6.1,0.3,12,3.6C187.5,30.2,191.5,68.1,167.8,87.7z"/>
		<g>
			
				<linearGradient id="SVGID_00000062872097125344182240000014848954417477048245_" gradientUnits="userSpaceOnUse" x1="393.9124" y1="102.8883" x2="393.9124" y2="101.646" gradientTransform="matrix(-1 0 0 1 574.1875 0)">
				<stop  offset="0" style="stop-color:#FFAC32"/>
				<stop  offset="1" style="stop-color:#DD3300"/>
			</linearGradient>
			<path style="fill:url(#SVGID_00000062872097125344182240000014848954417477048245_);" d="M179.7,102.9c0,0,0.4-0.5,1.1-1.2
				C180.1,102.5,179.7,102.9,179.7,102.9z"/>
			
				<linearGradient id="SVGID_00000090264405432154015750000014070648917917896868_" gradientUnits="userSpaceOnUse" x1="378.2622" y1="102.8883" x2="378.2622" y2="34.2065" gradientTransform="matrix(-1 0 0 1 574.1875 0)">
				<stop  offset="0" style="stop-color:#FFAC32"/>
				<stop  offset="1" style="stop-color:#DD3300"/>
			</linearGradient>
			<path style="fill:url(#SVGID_00000090264405432154015750000014070648917917896868_);" d="M179.7,102.9c0,0,5.6-4.4,11.8-11.4l0,0
				c0,0,0,0,0,0c0.2-0.2,0.4-0.4,0.5-0.6c0,0,0.1-0.1,0.1-0.1c0.3-0.4,0.6-0.7,0.9-1.1c0.1-0.1,0.1-0.1,0.2-0.2
				c0.2-0.2,0.3-0.4,0.5-0.6c0.1-0.1,0.2-0.2,0.2-0.3c0.3-0.3,0.5-0.6,0.8-0.9c0.1-0.1,0.2-0.2,0.3-0.4c0.1-0.2,0.3-0.4,0.4-0.5
				c0.1-0.1,0.2-0.3,0.3-0.4c0.2-0.3,0.4-0.5,0.6-0.8c0.1-0.2,0.2-0.3,0.4-0.5c0.1-0.2,0.2-0.3,0.4-0.5c0.1-0.2,0.3-0.4,0.4-0.6
				c0.2-0.2,0.3-0.4,0.5-0.6c0.1-0.2,0.3-0.4,0.4-0.6c0.1-0.2,0.2-0.3,0.3-0.5c0.2-0.3,0.4-0.5,0.5-0.8c0.1-0.2,0.2-0.3,0.3-0.5
				c0.2-0.2,0.3-0.5,0.5-0.7c0.1-0.1,0.2-0.3,0.3-0.4c0.2-0.3,0.4-0.7,0.6-1c0.1-0.1,0.1-0.2,0.2-0.3c0.2-0.3,0.3-0.5,0.5-0.8
				c0.1-0.1,0.1-0.3,0.2-0.4c0.2-0.4,0.4-0.7,0.6-1.1c0.1-0.1,0.1-0.2,0.2-0.3c0.2-0.3,0.3-0.6,0.5-0.9c0.1-0.1,0.1-0.2,0.2-0.4
				c0.2-0.4,0.4-0.7,0.5-1.1c0-0.1,0.1-0.2,0.1-0.3c0.1-0.3,0.3-0.6,0.4-1c0-0.1,0.1-0.2,0.1-0.3c0.2-0.4,0.3-0.8,0.5-1.2
				c0-0.1,0.1-0.2,0.1-0.3c0.1-0.3,0.3-0.7,0.4-1c0-0.1,0.1-0.2,0.1-0.3c0.1-0.4,0.3-0.8,0.4-1.2c0-0.1,0.1-0.2,0.1-0.3
				c0.1-0.4,0.2-0.7,0.3-1.1c0-0.1,0.1-0.2,0.1-0.3c0.1-0.4,0.2-0.8,0.3-1.2c0-0.1,0-0.2,0.1-0.3c0.1-0.4,0.2-0.7,0.3-1.1
				c0-0.1,0-0.2,0.1-0.3c0.1-0.4,0.2-0.8,0.2-1.3c0-0.1,0-0.2,0-0.3c0.1-0.4,0.1-0.7,0.2-1.1c0-0.1,0-0.2,0-0.2
				c0.1-0.4,0.1-0.9,0.1-1.3c0-0.1,0-0.2,0-0.3c0-0.4,0-0.8,0.1-1.1c0-0.1,0-0.2,0-0.2c0-0.4,0-0.9,0-1.3c0-0.1,0-0.2,0-0.3
				c0-0.4,0-0.8,0-1.2c0-0.1,0-0.1,0-0.2c0-0.4-0.1-0.9-0.1-1.3c0-0.1,0-0.2,0-0.3c0-0.4-0.1-0.8-0.2-1.2c0-0.1,0-0.1,0-0.2
				c-0.1-0.4-0.2-0.9-0.3-1.3c0-0.1,0-0.2-0.1-0.3c-0.1-0.4-0.2-0.8-0.3-1.2c0-0.1,0-0.1,0-0.2c-0.1-0.4-0.3-0.9-0.4-1.3
				c0-0.1-0.1-0.2-0.1-0.3c-0.1-0.4-0.3-0.8-0.5-1.2c0,0,0-0.1-0.1-0.1c-0.2-0.4-0.4-0.9-0.6-1.3c0-0.1-0.1-0.2-0.1-0.3
				c-0.2-0.4-0.4-0.8-0.6-1.2c0,0,0-0.1-0.1-0.1c-0.2-0.4-0.5-0.9-0.8-1.3c-0.1-0.1-0.1-0.2-0.2-0.3c-0.3-0.4-0.5-0.8-0.8-1.2
				c0,0,0-0.1-0.1-0.1c-0.3-0.4-0.6-0.9-0.9-1.3c-0.1-0.1-0.2-0.2-0.2-0.3c-0.3-0.4-0.7-0.8-1-1.3c0,0,0,0,0,0
				c-0.4-0.4-0.7-0.9-1.1-1.3c-0.1-0.1-0.2-0.2-0.3-0.3c-0.4-0.4-0.8-0.9-1.2-1.3c0,0,5.4,2.4,11,7.5
				C224.7,75.9,179.7,102.9,179.7,102.9z"/>
		</g>
		<g>
			
				<linearGradient id="SVGID_00000081608960282663597050000010329170143924197272_" gradientUnits="userSpaceOnUse" x1="365.8979" y1="117.8988" x2="336.7093" y2="90.3448" gradientTransform="matrix(-1 0 0 1 574.1875 0)">
				<stop  offset="0" style="stop-color:#DD3300"/>
				<stop  offset="1" style="stop-color:#FFAC32"/>
			</linearGradient>
			<path style="fill:url(#SVGID_00000081608960282663597050000010329170143924197272_);" d="M209.9,116.4
				C209.9,116.4,209.9,116.4,209.9,116.4C209.9,116.4,209.9,116.4,209.9,116.4C209.9,116.4,209.9,116.4,209.9,116.4z"/>
			
				<linearGradient id="SVGID_00000048490870152820557610000013550688677885329079_" gradientUnits="userSpaceOnUse" x1="364.9369" y1="118.9164" x2="335.7512" y2="91.3651" gradientTransform="matrix(-1 0 0 1 574.1875 0)">
				<stop  offset="0" style="stop-color:#DD3300"/>
				<stop  offset="1" style="stop-color:#FFAC32"/>
			</linearGradient>
			<path style="fill:url(#SVGID_00000048490870152820557610000013550688677885329079_);" d="M235.2,89.9
				C235.2,89.9,235.2,89.9,235.2,89.9c0,0.1,0,0.1,0,0.1c0,0,0,0.1,0,0.1c0,0,0,0.1,0,0.1c0,0,0,0.1,0,0.1c0,0,0,0.1,0,0.1
				c0,0,0,0.1,0,0.1c0,0.1,0,0.1,0,0.2c0,0.1,0,0.1,0,0.2c0,0.1,0,0.1,0,0.2c0,0.1,0,0.1,0,0.2c0,0.1,0,0.2,0,0.3c0,0.1,0,0.1,0,0.2
				c0,0.1,0,0.2,0,0.3c0,0.1,0,0.1,0,0.2c0,0.1,0,0.2,0,0.3c0,0.1,0,0.2,0,0.2c0,0.1,0,0.2,0,0.3c0,0.1,0,0.2,0,0.3
				c0,0.1,0,0.2,0,0.4c0,0.1,0,0.2,0,0.3c0,0.1,0,0.3,0,0.4c0,0.1,0,0.2,0,0.3c0,0.1,0,0.3,0,0.4c0,0.1,0,0.2,0,0.2
				c0,0.4,0,0.8,0,1.3c-5.7,9.4-17,17.3-24.5,19.4C218.5,113.9,231.5,102.5,235.2,89.9C235.2,89.8,235.2,89.8,235.2,89.9
				C235.2,89.9,235.2,89.9,235.2,89.9z"/>
		</g>
	</g>
</g>
</svg>
